<svg xmlns="http://www.w3.org/2000/svg" aria-hidden="true" style="position:absolute;width:0;height:0;overflow:hidden">
  <defs>
    <symbol id="icon-run-man" viewBox="0 0 29 32">
      <path d="M28.367 9.451a1.232 1.232 0 0 0-1.706-.149l-3.359 2.757-1.545-3.739a1.157 1.157 0 0 0-.234-.362 3.255 3.255 0 0 0-1.619-1.617 3.379 3.379 0 0 0-1.005-.262c-.075-.038-.142-.088-.227-.114l-5.911-1.61a1.242 1.242 0 0 0-.938.125 1.17 1.17 0 0 0-.736.672l-2.226 5.592a1.18 1.18 0 0 0 .692 1.534 1.224 1.224 0 0 0 1.568-.678l1.88-4.722 2.692.731c-.066.104-.137.201-.19.312l-3.451 7.309c-.05.107-.076.217-.112.328l-4.194 6.871-7.019 2.294a1.73 1.73 0 0 0-.376 2.45 1.82 1.82 0 0 0 2.506.369l7.182-2.417c.22-.156.38-.36.5-.581.09-.093.193-.168.262-.284l2.501-4.096 4.439 3.696-4.749 5.23a1.722 1.722 0 0 0 .152 2.469c.74.643 1.873.575 2.531-.149l5.927-6.524c.184-.201.294-.433.369-.676.044-.132.044-.268.055-.405 0-.069.027-.132.021-.196a1.705 1.705 0 0 0-.615-1.274l-4.084-3.403c.294-.274.544-.6.725-.983l2.646-5.599.848 2.206c.036.196.103.388.245.549.128.149.291.248.465.317.018.009.039.01.06.016.11.038.222.075.337.08.136.012.275-.005.415-.043l.005-.002c.037-.009.075-.002.112-.017.197-.073.348-.196.477-.34l4.82-3.998c.512-.421.296-1.166-.135-1.667zM22.271 6.602c1.866 0 3.378-1.478 3.378-3.301S24.137 0 22.271 0s-3.378 1.478-3.378 3.301 1.513 3.301 3.378 3.301z"/>
    </symbol>
    <symbol id="icon-dumbbells" viewBox="0 0 43 32">
      <path d="M6.933 4.571h-3.2c-.887 0-1.6.764-1.6 1.714v7.429h-1.6c-.293 0-.533.257-.533.571v3.429c0 .314.24.571.533.571h1.6v7.429c0 .95.713 1.714 1.6 1.714h3.2c.887 0 1.6-.764 1.6-1.714V6.285c0-.95-.713-1.714-1.6-1.714zm35.2 9.143h-1.6V6.285c0-.95-.713-1.714-1.6-1.714h-3.2c-.887 0-1.6.764-1.6 1.714v19.429c0 .95.713 1.714 1.6 1.714h3.2c.887 0 1.6-.764 1.6-1.714v-7.429h1.6c.293 0 .533-.257.533-.571v-3.429c0-.314-.24-.571-.533-.571zM30.4 0h-3.2c-.887 0-1.6.764-1.6 1.714v12h-8.533v-12c0-.95-.713-1.714-1.6-1.714h-3.2c-.887 0-1.6.764-1.6 1.714v28.571c0 .95.713 1.714 1.6 1.714h3.2c.887 0 1.6-.764 1.6-1.714v-12H25.6v12c0 .95.713 1.714 1.6 1.714h3.2c.887 0 1.6-.764 1.6-1.714V1.714C32 .764 31.287 0 30.4 0z"/>
    </symbol>
    <symbol id="icon-quote" viewBox="0 0 36 32">
      <path d="M7.813 17.132c2.182-.865 3.932-.638 5.25.679s1.709 3.418 1.174 6.3c-.412 2.141-1.318 3.788-2.718 4.941-1.359 1.112-2.944 1.668-4.756 1.668-2.471 0-4.179-.947-5.126-2.841-.947-1.935-1.132-4.529-.556-7.782.329-1.771.865-3.562 1.606-5.374s1.729-3.665 2.965-5.559C6.887 7.27 8.493 5.623 10.47 4.223s4.159-2.306 6.547-2.718l-.618 6.547c-2.018.412-3.809 1.462-5.373 3.15-1.565 1.647-2.635 3.623-3.212 5.929zm18.591 0c2.182-.865 3.932-.638 5.25.679s1.709 3.418 1.173 6.3c-.412 2.141-1.318 3.788-2.718 4.941-1.359 1.112-2.944 1.668-4.756 1.668-2.471 0-4.179-.947-5.126-2.841-.947-1.935-1.132-4.529-.556-7.782.329-1.771.865-3.562 1.606-5.374s1.729-3.665 2.965-5.559 2.841-3.541 4.818-4.941a15.848 15.848 0 0 1 6.547-2.718l-.618 6.547c-2.018.412-3.809 1.462-5.374 3.15-1.565 1.647-2.635 3.623-3.212 5.929z"/>
    </symbol>
  </defs>
</svg>