<svg xmlns="http://www.w3.org/2000/svg" aria-hidden="true" style="position:absolute;width:0;height:0;overflow:hidden">
  <defs>
    <symbol id="icon-group" viewBox="0 0 32 32">
      <path fill="#f4f4f4" d="M29.647 9.451a1.185 1.185 0 0 0-1.667-.149l-3.282 2.757-1.509-3.739a1.163 1.163 0 0 0-.229-.362 3.215 3.215 0 0 0-1.582-1.617 3.247 3.247 0 0 0-.982-.262c-.073-.038-.139-.088-.222-.114l-5.776-1.61a1.19 1.19 0 0 0-.917.125 1.155 1.155 0 0 0-.719.672l-2.175 5.592a1.188 1.188 0 0 0 .676 1.534 1.187 1.187 0 0 0 1.532-.678l1.837-4.722 2.63.731c-.064.104-.133.201-.185.312l-3.372 7.309c-.049.107-.075.217-.109.328l-4.098 6.871-6.859 2.294a1.751 1.751 0 0 0 2.081 2.819l7.018-2.417c.215-.156.371-.36.489-.58.088-.094.189-.168.256-.284l2.443-4.096 4.337 3.696-4.64 5.23a1.75 1.75 0 1 0 2.622 2.32l5.791-6.524a1.72 1.72 0 0 0 .36-.676c.043-.132.043-.269.054-.406 0-.069.026-.132.021-.196a1.72 1.72 0 0 0-.601-1.274l-3.991-3.403c.288-.274.532-.6.709-.983l2.585-5.599.828 2.206c.035.196.101.388.239.549.125.149.284.248.454.317.017.009.038.01.059.016.107.038.217.075.329.08.133.012.269-.005.405-.043l.005-.002c.036-.009.073-.002.109-.017a1.17 1.17 0 0 0 .466-.34l4.71-3.998c.501-.421.289-1.166-.132-1.667zM23.69 6.602a3.301 3.301 0 1 0 0-6.602 3.301 3.301 0 0 0 0 6.602z" style="fill:var(--color1, #f4f4f4)"/>
    </symbol>
    <symbol id="icon-arrow" viewBox="0 0 32 32">
      <path fill="#f4f4f4" stroke-linecap="round" stroke-linejoin="round" stroke-width="2.6" d="m15 28 13-13m0 0L15 2m13 13H2"/>
    </symbol>
    <symbol id="icon-icon" viewBox="0 0 28 32">
      <path fill="#f4f4f4" stroke-linejoin="round" stroke-linecap="round" stroke-miterlimit="4" stroke-width="2.6" d="M19.333 8v-1.067c0-1.493 0-2.24-0.291-2.811-0.256-0.502-0.664-0.91-1.165-1.165-0.57-0.291-1.317-0.291-2.811-0.291h-2.133c-1.493 0-2.24 0-2.811 0.291-0.502 0.256-0.91 0.664-1.165 1.165-0.291 0.57-0.291 1.317-0.291 2.811v1.067M11.333 15.333v6.667M16.667 15.333v6.667M2 8h24M23.333 8v14.933c0 2.24 0 3.36-0.436 4.216-0.384 0.753-0.995 1.365-1.748 1.748-0.856 0.436-1.976 0.436-4.216 0.436h-5.867c-2.24 0-3.36 0-4.216-0.436-0.753-0.383-1.365-0.995-1.748-1.748-0.436-0.856-0.436-1.976-0.436-4.216v-14.933"/>
    </symbol>
    <symbol id="icon-trash" viewBox="0 0 32 32">
      <path stroke-linecap="round" stroke-linejoin="round" stroke-width="2.6" d="M21.333 8V6.933c0-1.493 0-2.24-.291-2.811a2.666 2.666 0 0 0-1.165-1.165c-.57-.291-1.317-.291-2.811-.291h-2.133c-1.493 0-2.24 0-2.811.291-.502.256-.91.664-1.165 1.165-.291.57-.291 1.317-.291 2.811V8m2.667 7.333V22m5.334-6.667V22M4 8h24m-2.667 0v14.933c0 2.24 0 3.36-.436 4.216a3.996 3.996 0 0 1-1.748 1.748c-.856.436-1.976.436-4.216.436h-5.867c-2.24 0-3.36 0-4.216-.436a3.991 3.991 0 0 1-1.748-1.748c-.436-.856-.436-1.976-.436-4.216V8"/>
    </symbol>
  </defs>
</svg>
