<svg xmlns="http://www.w3.org/2000/svg" width="132" height="14" fill="none">
  <path fill="#F4F4F4" d="M4.98 8.28 0 0h2.98l3.34 5.74h.04L9.7 0h2.98L7.7 8.28V14H4.98V8.28ZM12.67 11.7V2.3l2.3-2.3h7.2l2.3 2.3v9.4l-2.3 2.3h-7.2l-2.3-2.3Zm8.06-.02 1.02-1.02V3.34l-1.02-1.02h-4.32l-1.02 1.02v7.32l1.02 1.02h4.32ZM26.374 11.6V0h2.72v10.66l1.02 1.02h3.92l1.02-1.02V0h2.72v11.6l-2.4 2.4h-6.6l-2.4-2.4ZM50.878 9.36V14h-2.72V9.98l-1.2-1.34h-4.36V14h-2.72V0h8.78l2.14 2.16V6.4l-1.36 1.38 1.44 1.58Zm-8.28-2.96h4.82l.7-.7V2.98l-.7-.7h-4.82V6.4ZM57.823 0h10.12v2.3h-7.4v3.54h6.82V8.1h-6.82v3.6h7.4V14h-10.12V0ZM69.452 0h2.44l6.24 9.5h.04V0h2.62v14h-2.44l-6.24-9.48h-.04V14h-2.62V0ZM82.898 0h10.12v2.3h-7.4v3.54h6.82V8.1h-6.82v3.6h7.4V14h-10.12V0ZM105.527 9.36V14h-2.72V9.98l-1.2-1.34h-4.36V14h-2.72V0h8.78l2.14 2.16V6.4l-1.36 1.38 1.44 1.58Zm-8.28-2.96h4.82l.7-.7V2.98l-.7-.7h-4.82V6.4ZM107.323 11.7V2.3l2.3-2.3h6.96l2.26 2.26V4.4h-2.72V3.26l-.94-.94h-4.12l-1.02 1.02v7.32l1.02 1.02h4.16l.98-.98V8.52h-3V6.2h5.64v5.5l-2.3 2.3h-6.92l-2.3-2.3ZM123.828 8.28 118.848 0h2.98l3.34 5.74h.04l3.34-5.74h2.98l-4.98 8.28V14h-2.72V8.28Z"/>
</svg>
