<svg aria-hidden="true" style="position: absolute; width: 0; height: 0; overflow: hidden;" version="1.1" xmlns="http://www.w3.org/2000/svg" xmlns:xlink="http://www.w3.org/1999/xlink">
<defs>
<symbol id="icon-close" viewBox="0 0 32 32">
<path stroke-linejoin="round" stroke-linecap="round" stroke-miterlimit="4" stroke-width="2.6667" d="M22.667 9.333l-13.333 13.333M9.333 9.333l13.333 13.333"></path>
</symbol>
<symbol id="icon-heart" viewBox="0 0 32 32">
<path stroke-linejoin="round" stroke-linecap="round" stroke-miterlimit="4" stroke-width="2.4" d="M27.787 6.147c-0.681-0.681-1.49-1.222-2.38-1.591s-1.844-0.559-2.807-0.559c-0.963 0-1.917 0.19-2.807 0.559s-1.699 0.909-2.38 1.591l-1.413 1.413-1.413-1.413c-1.376-1.376-3.241-2.148-5.187-2.148s-3.811 0.773-5.187 2.148c-1.376 1.376-2.148 3.241-2.148 5.187s0.773 3.811 2.148 5.187l11.787 11.787 11.787-11.787c0.681-0.681 1.222-1.49 1.591-2.38s0.559-1.844 0.559-2.807c0-0.963-0.19-1.917-0.559-2.807s-0.909-1.699-1.591-2.38z"></path>
</symbol>
<symbol id="icon-trash" viewBox="0 0 32 32">
<path stroke-linejoin="round" stroke-linecap="round" stroke-miterlimit="4" stroke-width="2.6" d="M21.333 8v-1.067c0-1.493 0-2.24-0.291-2.811-0.256-0.502-0.664-0.91-1.165-1.165-0.57-0.291-1.317-0.291-2.811-0.291h-2.133c-1.493 0-2.24 0-2.811 0.291-0.502 0.256-0.91 0.664-1.165 1.165-0.291 0.57-0.291 1.317-0.291 2.811v1.067M13.333 15.333v6.667M18.667 15.333v6.667M4 8h24M25.333 8v14.933c0 2.24 0 3.36-0.436 4.216-0.384 0.753-0.995 1.365-1.748 1.748-0.856 0.436-1.976 0.436-4.216 0.436h-5.867c-2.24 0-3.36 0-4.216-0.436-0.753-0.383-1.365-0.995-1.748-1.748-0.436-0.856-0.436-1.976-0.436-4.216v-14.933"></path>
</symbol>
<symbol id="icon-arrow" viewBox="0 0 32 32">
<path stroke-linejoin="round" stroke-linecap="round" stroke-miterlimit="4" stroke-width="2.6" d="M15 28l13-13M28 15l-13-13M28 15h-26"></path>
</symbol>
<symbol id="icon-star" viewBox="0 0 34 32">
<path d="M14.89 2.282c0.737-2.268 3.945-2.268 4.682 0l2.080 6.402c0.33 1.014 1.275 1.701 2.341 1.701h6.731c2.384 0 3.376 3.051 1.447 4.453l-5.446 3.957c-0.863 0.627-1.224 1.738-0.894 2.752l2.080 6.402c0.737 2.268-1.859 4.154-3.788 2.752l-5.446-3.957c-0.863-0.627-2.031-0.627-2.894 0l-5.446 3.957c-1.929 1.402-4.525-0.484-3.788-2.752l2.080-6.402c0.33-1.014-0.031-2.125-0.894-2.752l-5.446-3.957c-1.929-1.402-0.938-4.453 1.447-4.453h6.731c1.066 0 2.012-0.687 2.341-1.701l2.080-6.402z"></path>
</symbol>
<symbol id="icon-man" viewBox="0 0 32 32">
<path d="M29.647 9.451c-0.419-0.501-1.166-0.567-1.667-0.149l-3.282 2.757-1.509-3.739c-0.054-0.14-0.135-0.258-0.229-0.362-0.308-0.686-0.844-1.275-1.582-1.617-0.321-0.146-0.652-0.224-0.982-0.262-0.073-0.038-0.139-0.088-0.222-0.114l-5.776-1.61c-0.324-0.088-0.65-0.031-0.917 0.125-0.317 0.107-0.589 0.338-0.719 0.672l-2.175 5.592c-0.236 0.608 0.066 1.294 0.676 1.534 0.606 0.236 1.294-0.068 1.532-0.678l1.837-4.722 2.63 0.731c-0.064 0.104-0.133 0.201-0.185 0.312l-3.372 7.309c-0.049 0.107-0.075 0.217-0.109 0.328l-4.098 6.871-6.859 2.294c-0.776 0.581-0.941 1.674-0.367 2.45 0.577 0.778 1.674 0.943 2.448 0.369l7.018-2.417c0.215-0.156 0.371-0.36 0.489-0.58 0.088-0.094 0.189-0.168 0.256-0.284l2.443-4.096 4.337 3.696-4.64 5.23c-0.639 0.721-0.575 1.832 0.149 2.469 0.723 0.643 1.83 0.575 2.473-0.149l5.791-6.524c0.18-0.201 0.288-0.433 0.36-0.676 0.043-0.132 0.043-0.269 0.054-0.406 0-0.069 0.026-0.132 0.021-0.196-0.016-0.478-0.21-0.943-0.601-1.274l-3.991-3.403c0.288-0.274 0.532-0.6 0.709-0.983l2.585-5.599 0.828 2.206c0.035 0.196 0.101 0.388 0.239 0.549 0.125 0.149 0.284 0.248 0.454 0.317 0.017 0.009 0.038 0.010 0.059 0.016 0.107 0.038 0.217 0.075 0.329 0.080 0.133 0.012 0.269-0.005 0.405-0.043 0.004-0.002 0.005-0.002 0.005-0.002 0.036-0.009 0.073-0.002 0.109-0.017 0.192-0.073 0.34-0.196 0.466-0.34l4.71-3.998c0.501-0.421 0.289-1.166-0.132-1.667z"></path>
<path d="M23.69 6.602c1.823 0 3.301-1.478 3.301-3.301s-1.478-3.301-3.301-3.301c-1.823 0-3.301 1.478-3.301 3.301s1.478 3.301 3.301 3.301z"></path>
</symbol>
  <symbol id="icon-sun" viewBox="0 0 32 32">
<path d="M14.316 13.621l0.365 0.376-4.485-12.907 5.344 12.573 0.018-0.524 0.443-13.138 0.461 13.663 5.344-12.573-4.485 12.907 9.506-9.785-8.825 10.409 12.384-5.676-11.973 6.504 13.589-0.8-13.504 1.721 12.959 4.184-13.211-3.294 10.579 8.603-11.134-7.864 6.77 11.86-7.554-11.373 2.047 13.515-2.953-13.345-2.953 13.345 2.047-13.515-7.553 11.373 6.77-11.86-11.134 7.864 10.579-8.603-13.211 3.294 12.959-4.184-13.504-1.721 13.589 0.8-11.973-6.504 12.384 5.676-8.825-10.409 9.141 9.41zM15.25 14.192l-0.649 0.404-0.46 0.612-0.209 0.737 0.070 0.763 0.34 0.686 0.564 0.517 0.712 0.277h0.763l0.712-0.277 0.564-0.517 0.34-0.686 0.070-0.763-0.209-0.737-0.46-0.612-0.649-0.404-0.75-0.141-0.75 0.141z"></path>
</symbol>
<symbol id="icon-logo" viewBox="0 0 9655 1024">
 <path d="M364.251 605.623l-364.251-605.623h217.966l244.297 419.84h2.926l244.297-419.84h217.966l-364.251 605.623v418.377h-198.949v-418.377zM926.72 855.771v-687.543l168.229-168.229h526.629l168.229 168.229v687.543l-168.229 168.229h-526.629l-168.229-168.229zM1516.251 854.309l74.606-74.606v-535.406l-74.606-74.606h-315.977l-74.606 74.606v535.406l74.606 74.606h315.977zM1929.070 848.457v-848.457h198.949v779.703l74.606 74.606h286.72l74.606-74.606v-779.703h198.949v848.457l-175.543 175.543h-482.743l-175.543-175.543zM3721.362 684.617v339.383h-198.949v-294.034l-87.771-98.011h-318.903v392.046h-198.949v-1024h642.194l156.526 157.989v310.126l-99.474 100.937 105.326 115.566zM3115.739 468.114h352.549l51.2-51.2v-198.949l-51.2-51.2h-352.549v301.349zM4229.339 0h740.206v168.229h-541.257v258.926h498.834v165.303h-498.834v263.314h541.257v168.229h-740.206v-1024zM5079.918 0h178.469l456.411 694.857h2.926v-694.857h191.634v1024h-178.469l-456.411-693.394h-2.926v693.394h-191.634v-1024zM6063.397 0h740.206v168.229h-541.257v258.926h498.834v165.303h-498.834v263.314h541.257v168.229h-740.206v-1024zM7718.546 684.617v339.383h-198.949v-294.034l-87.771-98.011h-318.903v392.046h-198.949v-1024h642.194l156.526 157.989v310.126l-99.474 100.937 105.326 115.566zM7112.923 468.114h352.549l51.2-51.2v-198.949l-51.2-51.2h-352.549v301.349zM7849.911 855.771v-687.543l168.229-168.229h509.074l165.303 165.303v156.526h-198.949v-83.383l-68.754-68.754h-301.349l-74.606 74.606v535.406l74.606 74.606h304.274l71.68-71.68v-159.451h-219.429v-169.691h412.526v402.286l-168.229 168.229h-506.149l-168.229-168.229zM9057.134 605.623l-364.251-605.623h217.966l244.297 419.84h2.926l244.297-419.84h217.966l-364.251 605.623v418.377h-198.949v-418.377z"></path>
 </symbol>
<symbol id="icon-facebook" viewBox="0 0 1024 1024">
<path d="M624.655 148.484c7.68 0 15.36 0 30.72 0v115.2c-7.68 0-23.040 0-38.4 0s-30.72 0-38.4 7.68c-7.68 7.68-7.68 15.36-7.68 33.28 0 15.36 0 25.6 0 40.96h84.48v97.28h-84.48v422.4h-130.56v-424.96h-69.12v-97.28h69.12v-33.28c0-56.32 7.68-97.28 23.040-115.2 23.040-33.28 69.12-48.64 138.24-48.64 7.68 2.56 15.36 2.56 23.040 2.56z"></path>
</symbol>
 <symbol id="icon-instagram" viewBox="0 0 1024 1024">
<path d="M918.956 344.193c-0.501-34.379-6.872-68.486-19.061-100.64-21.336-54.907-64.779-98.324-119.779-119.579-31.799-11.944-65.415-18.348-99.441-19.074-43.765-1.953-57.64-2.498-168.726-2.498-111.089 0-125.33 0-168.773 2.498-33.981 0.727-67.599 7.13-99.397 19.074-54.998 21.255-98.488 64.671-119.778 119.579-11.964 31.745-18.424 65.307-19.061 99.232-1.956 43.735-2.548 57.588-2.548 168.491s0 125.074 2.548 168.488c0.682 33.971 7.097 67.489 19.061 99.324 21.335 54.861 64.779 98.278 119.823 119.534 31.662 12.354 65.28 19.346 99.398 20.436 43.806 1.953 57.682 2.545 168.771 2.545s125.327 0 168.77-2.545c33.982-0.68 67.602-7.084 99.445-19.028 55-21.299 98.443-64.717 119.779-119.578 11.963-31.792 18.377-65.309 19.057-99.324 1.957-43.688 2.549-57.541 2.549-168.492-0.091-110.903-0.091-124.983-2.637-168.444zM511.675 721.002c-116.184 0-210.304-93.963-210.304-209.953s94.121-209.956 210.304-209.956c116.092 0 210.304 93.966 210.304 209.956s-94.212 209.953-210.304 209.953zM730.35 342.285c-27.158 0-49.039-21.89-49.039-48.958s21.881-48.957 49.039-48.957c27.067 0 48.995 21.89 48.995 48.957s-21.928 48.958-48.995 48.958z"></path>
<path d="M511.737 639.228c70.762 0 128.128-57.362 128.128-128.128 0-70.762-57.366-128.128-128.128-128.128-70.766 0-128.128 57.366-128.128 128.128 0 70.766 57.362 128.128 128.128 128.128z"></path>
</symbol>
<symbol id="icon-youtube" viewBox="0 0 1024 1024">
<path d="M992.002 298.512c-11.76-44.048-46.512-78.048-90.52-89.848-79.688-21.424-400.88-21.424-400.88-21.424s-321.2 0-400.88 21.424c-44.008 11.8-78.76 45.8-90.52 89.848-21.632 79.896-21.632 246.8-21.632 246.8s0 166.912 21.632 246.808c11.76 44.04 46.512 78.04 90.52 89.824 79.688 21.432 400.88 21.432 400.88 21.432s321.2 0 400.88-21.432c44.008-11.784 78.76-45.784 90.52-89.824 21.64-79.896 21.64-246.808 21.64-246.808s-0.008-166.904-21.64-246.8zM423.984 671.8v-319.84l276.008 159.936-276.008 159.904z"></path>
<symbol id="icon-close2" viewBox="0 0 32 32">
<path stroke-linejoin="round" stroke-linecap="round" stroke-width="2" d="M24 8 8 24M8 8l16 16"/>
</symbol>
<symbol id="icon-burger" viewBox="0 0 32 32">
<path stroke-linejoin="round" stroke-linecap="round" stroke-width="2" d="M28 13.333H4M28 8H4M28 18.667H4M28 24H4"/>
</symbol>
<symbol id="icon-run-man" viewBox="0 0 29 32">
<path d="M28.367 9.451a1.232 1.232 0 0 0-1.706-.149l-3.359 2.757-1.545-3.739a1.157 1.157 0 0 0-.234-.362 3.255 3.255 0 0 0-1.619-1.617 3.379 3.379 0 0 0-1.005-.262c-.075-.038-.142-.088-.227-.114l-5.911-1.61a1.242 1.242 0 0 0-.938.125 1.17 1.17 0 0 0-.736.672l-2.226 5.592a1.18 1.18 0 0 0 .692 1.534 1.224 1.224 0 0 0 1.568-.678l1.88-4.722 2.692.731c-.066.104-.137.201-.19.312l-3.451 7.309c-.05.107-.076.217-.112.328l-4.194 6.871-7.019 2.294a1.73 1.73 0 0 0-.376 2.45 1.82 1.82 0 0 0 2.506.369l7.182-2.417c.22-.156.38-.36.5-.581.09-.093.193-.168.262-.284l2.501-4.096 4.439 3.696-4.749 5.23a1.722 1.722 0 0 0 .152 2.469c.74.643 1.873.575 2.531-.149l5.927-6.524c.184-.201.294-.433.369-.676.044-.132.044-.268.055-.405 0-.069.027-.132.021-.196a1.705 1.705 0 0 0-.615-1.274l-4.084-3.403c.294-.274.544-.6.725-.983l2.646-5.599.848 2.206c.036.196.103.388.245.549.128.149.291.248.465.317.018.009.039.01.06.016.11.038.222.075.337.08.136.012.275-.005.415-.043l.005-.002c.037-.009.075-.002.112-.017.197-.073.348-.196.477-.34l4.82-3.998c.512-.421.296-1.166-.135-1.667zM22.271 6.602c1.866 0 3.378-1.478 3.378-3.301S24.137 0 22.271 0s-3.378 1.478-3.378 3.301 1.513 3.301 3.378 3.301z"/>
</symbol>
<symbol id="icon-dumbbells" viewBox="0 0 43 32">
<path d="M6.933 4.571h-3.2c-.887 0-1.6.764-1.6 1.714v7.429h-1.6c-.293 0-.533.257-.533.571v3.429c0 .314.24.571.533.571h1.6v7.429c0 .95.713 1.714 1.6 1.714h3.2c.887 0 1.6-.764 1.6-1.714V6.285c0-.95-.713-1.714-1.6-1.714zm35.2 9.143h-1.6V6.285c0-.95-.713-1.714-1.6-1.714h-3.2c-.887 0-1.6.764-1.6 1.714v19.429c0 .95.713 1.714 1.6 1.714h3.2c.887 0 1.6-.764 1.6-1.714v-7.429h1.6c.293 0 .533-.257.533-.571v-3.429c0-.314-.24-.571-.533-.571zM30.4 0h-3.2c-.887 0-1.6.764-1.6 1.714v12h-8.533v-12c0-.95-.713-1.714-1.6-1.714h-3.2c-.887 0-1.6.764-1.6 1.714v28.571c0 .95.713 1.714 1.6 1.714h3.2c.887 0 1.6-.764 1.6-1.714v-12H25.6v12c0 .95.713 1.714 1.6 1.714h3.2c.887 0 1.6-.764 1.6-1.714V1.714C32 .764 31.287 0 30.4 0z"/>
</symbol>
<symbol id="icon-quote" viewBox="0 0 36 32">
<path d="M7.813 17.132c2.182-.865 3.932-.638 5.25.679s1.709 3.418 1.174 6.3c-.412 2.141-1.318 3.788-2.718 4.941-1.359 1.112-2.944 1.668-4.756 1.668-2.471 0-4.179-.947-5.126-2.841-.947-1.935-1.132-4.529-.556-7.782.329-1.771.865-3.562 1.606-5.374s1.729-3.665 2.965-5.559C6.887 7.27 8.493 5.623 10.47 4.223s4.159-2.306 6.547-2.718l-.618 6.547c-2.018.412-3.809 1.462-5.373 3.15-1.565 1.647-2.635 3.623-3.212 5.929zm18.591 0c2.182-.865 3.932-.638 5.25.679s1.709 3.418 1.173 6.3c-.412 2.141-1.318 3.788-2.718 4.941-1.359 1.112-2.944 1.668-4.756 1.668-2.471 0-4.179-.947-5.126-2.841-.947-1.935-1.132-4.529-.556-7.782.329-1.771.865-3.562 1.606-5.374s1.729-3.665 2.965-5.559 2.841-3.541 4.818-4.941a15.848 15.848 0 0 1 6.547-2.718l-.618 6.547c-2.018.412-3.809 1.462-5.374 3.15-1.565 1.647-2.635 3.623-3.212 5.929z"/>
</symbol>
</defs>
</svg>
