<svg xmlns="http://www.w3.org/2000/svg" style="display: none;">
<!-- Logo -->
<symbol id="icon-logo" viewBox="0 0 9655 1024">
 <path d="M364.251 605.623l-364.251-605.623h217.966l244.297 419.84h2.926l244.297-419.84h217.966l-364.251 605.623v418.377h-198.949v-418.377zM926.72 855.771v-687.543l168.229-168.229h526.629l168.229 168.229v687.543l-168.229 168.229h-526.629l-168.229-168.229zM1516.251 854.309l74.606-74.606v-535.406l-74.606-74.606h-315.977l-74.606 74.606v535.406l74.606 74.606h315.977zM1929.070 848.457v-848.457h198.949v779.703l74.606 74.606h286.72l74.606-74.606v-779.703h198.949v848.457l-175.543 175.543h-482.743l-175.543-175.543zM3721.362 684.617v339.383h-198.949v-294.034l-87.771-98.011h-318.903v392.046h-198.949v-1024h642.194l156.526 157.989v310.126l-99.474 100.937 105.326 115.566zM3115.739 468.114h352.549l51.2-51.2v-198.949l-51.2-51.2h-352.549v301.349zM4229.339 0h740.206v168.229h-541.257v258.926h498.834v165.303h-498.834v263.314h541.257v168.229h-740.206v-1024zM5079.918 0h178.469l456.411 694.857h2.926v-694.857h191.634v1024h-178.469l-456.411-693.394h-2.926v693.394h-191.634v-1024zM6063.397 0h740.206v168.229h-541.257v258.926h498.834v165.303h-498.834v263.314h541.257v168.229h-740.206v-1024zM7718.546 684.617v339.383h-198.949v-294.034l-87.771-98.011h-318.903v392.046h-198.949v-1024h642.194l156.526 157.989v310.126l-99.474 100.937 105.326 115.566zM7112.923 468.114h352.549l51.2-51.2v-198.949l-51.2-51.2h-352.549v301.349zM7849.911 855.771v-687.543l168.229-168.229h509.074l165.303 165.303v156.526h-198.949v-83.383l-68.754-68.754h-301.349l-74.606 74.606v535.406l74.606 74.606h304.274l71.68-71.68v-159.451h-219.429v-169.691h412.526v402.286l-168.229 168.229h-506.149l-168.229-168.229zM9057.134 605.623l-364.251-605.623h217.966l244.297 419.84h2.926l244.297-419.84h217.966l-364.251 605.623v418.377h-198.949v-418.377z"></path>
 </symbol>
<!-- Facebook -->
<symbol id="icon-facebook" viewBox="0 0 1024 1024">
<path d="M624.655 148.484c7.68 0 15.36 0 30.72 0v115.2c-7.68 0-23.040 0-38.4 0s-30.72 0-38.4 7.68c-7.68 7.68-7.68 15.36-7.68 33.28 0 15.36 0 25.6 0 40.96h84.48v97.28h-84.48v422.4h-130.56v-424.96h-69.12v-97.28h69.12v-33.28c0-56.32 7.68-97.28 23.040-115.2 23.040-33.28 69.12-48.64 138.24-48.64 7.68 2.56 15.36 2.56 23.040 2.56z"></path>
</symbol>
<!-- Instagram -->
 <symbol id="icon-instagram" viewBox="0 0 1024 1024">
<path d="M918.956 344.193c-0.501-34.379-6.872-68.486-19.061-100.64-21.336-54.907-64.779-98.324-119.779-119.579-31.799-11.944-65.415-18.348-99.441-19.074-43.765-1.953-57.64-2.498-168.726-2.498-111.089 0-125.33 0-168.773 2.498-33.981 0.727-67.599 7.13-99.397 19.074-54.998 21.255-98.488 64.671-119.778 119.579-11.964 31.745-18.424 65.307-19.061 99.232-1.956 43.735-2.548 57.588-2.548 168.491s0 125.074 2.548 168.488c0.682 33.971 7.097 67.489 19.061 99.324 21.335 54.861 64.779 98.278 119.823 119.534 31.662 12.354 65.28 19.346 99.398 20.436 43.806 1.953 57.682 2.545 168.771 2.545s125.327 0 168.77-2.545c33.982-0.68 67.602-7.084 99.445-19.028 55-21.299 98.443-64.717 119.779-119.578 11.963-31.792 18.377-65.309 19.057-99.324 1.957-43.688 2.549-57.541 2.549-168.492-0.091-110.903-0.091-124.983-2.637-168.444zM511.675 721.002c-116.184 0-210.304-93.963-210.304-209.953s94.121-209.956 210.304-209.956c116.092 0 210.304 93.966 210.304 209.956s-94.212 209.953-210.304 209.953zM730.35 342.285c-27.158 0-49.039-21.89-49.039-48.958s21.881-48.957 49.039-48.957c27.067 0 48.995 21.89 48.995 48.957s-21.928 48.958-48.995 48.958z"></path>
<path d="M511.737 639.228c70.762 0 128.128-57.362 128.128-128.128 0-70.762-57.366-128.128-128.128-128.128-70.766 0-128.128 57.366-128.128 128.128 0 70.766 57.362 128.128 128.128 128.128z"></path>
</symbol>
<!-- YouTube -->
<symbol id="icon-youtube" viewBox="0 0 1024 1024">
<path d="M992.002 298.512c-11.76-44.048-46.512-78.048-90.52-89.848-79.688-21.424-400.88-21.424-400.88-21.424s-321.2 0-400.88 21.424c-44.008 11.8-78.76 45.8-90.52 89.848-21.632 79.896-21.632 246.8-21.632 246.8s0 166.912 21.632 246.808c11.76 44.04 46.512 78.04 90.52 89.824 79.688 21.432 400.88 21.432 400.88 21.432s321.2 0 400.88-21.432c44.008-11.784 78.76-45.784 90.52-89.824 21.64-79.896 21.64-246.808 21.64-246.808s-0.008-166.904-21.64-246.8zM423.984 671.8v-319.84l276.008 159.936-276.008 159.904z"></path>
</symbol>
</svg>
